<svg width="65" height="64" viewBox="0 0 65 64" fill="none" xmlns="http://www.w3.org/2000/svg">
<rect x="0.330078" width="64" height="64" rx="32" fill="#0057FF"/>
<path d="M32.3301 24.3377V41.671M32.3301 24.3377C30.7727 23.303 28.6581 22.667 26.3301 22.667C24.0021 22.667 21.8874 23.303 20.3301 24.3377V41.671C21.8874 40.6363 24.0021 40.0003 26.3301 40.0003C28.6581 40.0003 30.7727 40.6363 32.3301 41.671M32.3301 24.3377C33.8874 23.303 36.0021 22.667 38.3301 22.667C40.6581 22.667 42.7727 23.303 44.3301 24.3377V41.671C42.7727 40.6363 40.6581 40.0003 38.3301 40.0003C36.0021 40.0003 33.8874 40.6363 32.3301 41.671" stroke="white" stroke-width="2.66667" stroke-linecap="round" stroke-linejoin="round"/>
</svg>
