<svg width="48" height="48" viewBox="0 0 48 48" fill="none" xmlns="http://www.w3.org/2000/svg">
<rect width="48" height="48" rx="24" fill="#0057FF"/>
<path d="M15 17C15 16.4696 15.2107 15.9609 15.5858 15.5858C15.9609 15.2107 16.4696 15 17 15H20.28C20.4898 15.0002 20.6942 15.0663 20.8644 15.189C21.0345 15.3118 21.1617 15.485 21.228 15.684L22.726 20.177C22.8019 20.4053 22.7929 20.6534 22.7007 20.8756C22.6085 21.0979 22.4393 21.2795 22.224 21.387L19.967 22.517C21.0733 24.9655 23.0345 26.9267 25.483 28.033L26.613 25.776C26.7205 25.5607 26.9021 25.3915 27.1244 25.2993C27.3466 25.2071 27.5947 25.1981 27.823 25.274L32.316 26.772C32.5152 26.8383 32.6885 26.9657 32.8112 27.136C32.934 27.3064 33.0001 27.511 33 27.721V31C33 31.5304 32.7893 32.0391 32.4142 32.4142C32.0391 32.7893 31.5304 33 31 33H30C21.716 33 15 26.284 15 18V17Z" stroke="white" stroke-width="2" stroke-linecap="round" stroke-linejoin="round"/>
</svg>
