<svg width="64" height="64" viewBox="0 0 64 64" fill="none" xmlns="http://www.w3.org/2000/svg">
<rect width="64" height="64" rx="32" fill="#0057FF"/>
<path d="M38.667 42.6663H45.3337V39.9997C45.3336 39.1684 45.0745 38.3578 44.5925 37.6805C44.1105 37.0032 43.4294 36.493 42.644 36.2207C41.8586 35.9484 41.0078 35.9275 40.21 36.161C39.4122 36.3946 38.707 36.8708 38.1923 37.5237M38.667 42.6663H25.3337M38.667 42.6663V39.9997C38.667 39.125 38.499 38.289 38.1923 37.5237M38.1923 37.5237C37.6972 36.2863 36.8427 35.2256 35.739 34.4785C34.6353 33.7314 33.3331 33.3321 32.0003 33.3321C30.6675 33.3321 29.3653 33.7314 28.2617 34.4785C27.158 35.2256 26.3035 36.2863 25.8083 37.5237M25.3337 42.6663H18.667V39.9997C18.6671 39.1684 18.9261 38.3578 19.4081 37.6805C19.8902 37.0032 20.5712 36.493 21.3567 36.2207C22.1421 35.9484 22.9928 35.9275 23.7906 36.161C24.5885 36.3946 25.2937 36.8708 25.8083 37.5237M25.3337 42.6663V39.9997C25.3337 39.125 25.5017 38.289 25.8083 37.5237M36.0003 25.333C36.0003 26.3939 35.5789 27.4113 34.8288 28.1614C34.0786 28.9116 33.0612 29.333 32.0003 29.333C30.9395 29.333 29.922 28.9116 29.1719 28.1614C28.4218 27.4113 28.0003 26.3939 28.0003 25.333C28.0003 24.2721 28.4218 23.2547 29.1719 22.5046C29.922 21.7544 30.9395 21.333 32.0003 21.333C33.0612 21.333 34.0786 21.7544 34.8288 22.5046C35.5789 23.2547 36.0003 24.2721 36.0003 25.333ZM44.0003 29.333C44.0003 30.0403 43.7194 30.7185 43.2193 31.2186C42.7192 31.7187 42.0409 31.9997 41.3337 31.9997C40.6264 31.9997 39.9481 31.7187 39.448 31.2186C38.9479 30.7185 38.667 30.0403 38.667 29.333C38.667 28.6258 38.9479 27.9475 39.448 27.4474C39.9481 26.9473 40.6264 26.6663 41.3337 26.6663C42.0409 26.6663 42.7192 26.9473 43.2193 27.4474C43.7194 27.9475 44.0003 28.6258 44.0003 29.333ZM25.3337 29.333C25.3337 30.0403 25.0527 30.7185 24.5526 31.2186C24.0525 31.7187 23.3742 31.9997 22.667 31.9997C21.9597 31.9997 21.2815 31.7187 20.7814 31.2186C20.2813 30.7185 20.0003 30.0403 20.0003 29.333C20.0003 28.6258 20.2813 27.9475 20.7814 27.4474C21.2815 26.9473 21.9597 26.6663 22.667 26.6663C23.3742 26.6663 24.0525 26.9473 24.5526 27.4474C25.0527 27.9475 25.3337 28.6258 25.3337 29.333Z" stroke="white" stroke-width="2.66667" stroke-linecap="round" stroke-linejoin="round"/>
</svg>
