<svg width="48" height="48" viewBox="0 0 48 48" fill="none" xmlns="http://www.w3.org/2000/svg">
<rect width="48" height="48" rx="24" fill="#0057FF"/>
<path d="M29.657 28.6567L25.414 32.8997C25.2284 33.0854 25.0081 33.2328 24.7656 33.3333C24.523 33.4339 24.2631 33.4856 24.0005 33.4856C23.738 33.4856 23.478 33.4339 23.2354 33.3333C22.9929 33.2328 22.7726 33.0854 22.587 32.8997L18.343 28.6567C17.2242 27.5379 16.4623 26.1124 16.1537 24.5606C15.845 23.0087 16.0035 21.4002 16.609 19.9384C17.2145 18.4767 18.2399 17.2272 19.5555 16.3482C20.8711 15.4692 22.4178 15 24 15C25.5822 15 27.1289 15.4692 28.4445 16.3482C29.7601 17.2272 30.7855 18.4767 31.391 19.9384C31.9965 21.4002 32.155 23.0087 31.8463 24.5606C31.5377 26.1124 30.7758 27.5379 29.657 28.6567Z" stroke="white" stroke-width="2" stroke-linecap="round" stroke-linejoin="round"/>
<path d="M27 23C27 23.7956 26.6839 24.5587 26.1213 25.1213C25.5587 25.6839 24.7956 26 24 26C23.2044 26 22.4413 25.6839 21.8787 25.1213C21.3161 24.5587 21 23.7956 21 23C21 22.2044 21.3161 21.4413 21.8787 20.8787C22.4413 20.3161 23.2044 20 24 20C24.7956 20 25.5587 20.3161 26.1213 20.8787C26.6839 21.4413 27 22.2044 27 23Z" stroke="white" stroke-width="2" stroke-linecap="round" stroke-linejoin="round"/>
</svg>
