<svg width="65" height="64" viewBox="0 0 65 64" fill="none" xmlns="http://www.w3.org/2000/svg">
<rect x="0.660156" width="64" height="64" rx="32" fill="#0057FF"/>
<path d="M29.5442 38.6667H35.7748M32.6602 20V21.3333M41.1455 23.5147L40.2028 24.4573M44.6602 32H43.3268M21.9935 32H20.6602M25.1175 24.4573L24.1748 23.5147M27.9455 36.7147C27.0133 35.7822 26.3786 34.5944 26.1215 33.3012C25.8644 32.008 25.9965 30.6677 26.5011 29.4496C27.0058 28.2315 27.8602 27.1905 28.9565 26.458C30.0528 25.7255 31.3417 25.3346 32.6602 25.3346C33.9786 25.3346 35.2675 25.7255 36.3638 26.458C37.4601 27.1905 38.3146 28.2315 38.8192 29.4496C39.3238 30.6677 39.4559 32.008 39.1989 33.3012C38.9418 34.5944 38.307 35.7822 37.3748 36.7147L36.6442 37.444C36.2264 37.8618 35.8951 38.3578 35.6691 38.9036C35.443 39.4495 35.3267 40.0345 35.3268 40.6253V41.3333C35.3268 42.0406 35.0459 42.7189 34.5458 43.219C34.0457 43.719 33.3674 44 32.6602 44C31.9529 44 31.2746 43.719 30.7745 43.219C30.2744 42.7189 29.9935 42.0406 29.9935 41.3333V40.6253C29.9935 39.432 29.5188 38.2867 28.6762 37.444L27.9455 36.7147Z" stroke="white" stroke-width="2.66667" stroke-linecap="round" stroke-linejoin="round"/>
</svg>
