<svg width="40" height="40" viewBox="0 0 40 40" fill="none" xmlns="http://www.w3.org/2000/svg">
<rect width="40" height="40" rx="20" fill="#0057FF"/>
<path d="M27.0392 27.0433H24.0775V22.4025C24.0775 21.2958 24.055 19.8717 22.5342 19.8717C20.99 19.8717 20.7542 21.0758 20.7542 22.3208V27.0433H17.7925V17.5H20.6375V18.8008H20.6758C21.0733 18.0508 22.04 17.2592 23.4842 17.2592C26.485 17.2592 27.04 19.2342 27.04 21.805L27.0392 27.0433ZM14.4475 16.1942C13.4942 16.1942 12.7283 15.4225 12.7283 14.4733C12.7283 13.525 13.495 12.7542 14.4475 12.7542C15.3975 12.7542 16.1675 13.525 16.1675 14.4733C16.1675 15.4225 15.3967 16.1942 14.4475 16.1942ZM15.9325 27.0433H12.9625V17.5H15.9325V27.0433ZM28.5208 10H11.4758C10.66 10 10 10.645 10 11.4408V28.5592C10 29.3558 10.66 30 11.4758 30H28.5183C29.3333 30 30 29.3558 30 28.5592V11.4408C30 10.645 29.3333 10 28.5183 10H28.5208Z" fill="white"/>
</svg>
