<svg width="40" height="40" viewBox="0 0 40 40" fill="none" xmlns="http://www.w3.org/2000/svg">
<rect width="40" height="40" rx="20" fill="#0057FF"/>
<path d="M20.0139 10C14.4964 10 10.0239 14.4725 10.0239 19.9892C10.0239 24.2217 12.6556 27.8367 16.3723 29.3008C16.2848 28.51 16.2064 27.2983 16.4064 26.435C16.5889 25.6542 17.5781 21.4708 17.5781 21.4708C17.5781 21.4708 17.2789 20.8708 17.2789 19.9867C17.2789 18.6008 18.0848 17.5608 19.0856 17.5608C19.9389 17.5608 20.3506 18.2017 20.3506 18.9675C20.3506 19.825 19.8064 21.1067 19.5239 22.2942C19.2864 23.2883 20.0239 24.0983 21.0031 24.0983C22.7764 24.0983 24.1431 22.2275 24.1431 19.5258C24.1431 17.1417 22.4239 15.4683 19.9698 15.4683C17.1281 15.4683 15.4623 17.6033 15.4623 19.8008C15.4623 20.6617 15.7906 21.5867 16.2031 22.085C16.2856 22.185 16.2964 22.2725 16.2739 22.3725C16.1989 22.685 16.0298 23.3717 15.9956 23.5083C15.9514 23.6958 15.8523 23.7342 15.6606 23.6458C14.4148 23.0708 13.6331 21.2475 13.6331 19.7742C13.6331 16.6275 15.9231 13.7308 20.2331 13.7308C23.6981 13.7308 26.3931 16.2033 26.3931 19.5C26.3931 22.9458 24.2206 25.7183 21.1989 25.7183C20.1873 25.7183 19.2348 25.1942 18.9073 24.57L18.2839 26.9475C18.0581 27.8167 17.4489 28.9058 17.0406 29.5692C17.9748 29.8433 18.9689 30.0075 20.0139 30.0075C25.5339 30.0075 30.0056 25.535 30.0056 20.0175C30.0056 14.4725 25.5339 10.0008 10.0098 10.0008L20.0139 10Z" fill="white"/>
</svg>
