<svg width="40" height="40" viewBox="0 0 40 40" fill="none" xmlns="http://www.w3.org/2000/svg">
<rect width="40" height="40" rx="20" fill="#0057FF"/>
<path d="M30 13.7972C29.2642 14.1239 28.4733 14.3439 27.6433 14.443C28.4908 13.9355 29.1417 13.1314 29.4475 12.173C28.655 12.643 27.7767 12.9847 26.8417 13.1689C26.0942 12.3714 25.0267 11.873 23.8467 11.873C21.1975 11.873 19.2508 14.3447 19.8492 16.9105C16.44 16.7397 13.4167 15.1064 11.3925 12.6239C10.3175 14.468 10.835 16.8805 12.6617 18.1022C11.99 18.0805 11.3567 17.8964 10.8042 17.5889C10.7592 19.4897 12.1217 21.268 14.095 21.6639C13.5175 21.8205 12.885 21.8572 12.2417 21.7339C12.7633 23.3639 14.2783 24.5497 16.075 24.583C14.35 25.9355 12.1767 26.5397 10 26.283C11.8158 27.4472 13.9733 28.1264 16.29 28.1264C23.9083 28.1264 28.2125 21.6922 27.9525 15.9214C28.7542 15.3422 29.45 14.6197 30 13.7972Z" fill="white"/>
</svg>
